<svg width="249" height="50" viewBox="0 0 249 50" fill="none" xmlns="http://www.w3.org/2000/svg">
<g clip-path="url(#clip0_1_38)">
<path d="M25.3124 50C39.2544 50 50.5566 38.8071 50.5566 25C50.5566 11.1929 39.2544 0 25.3124 0C11.3704 0 0.0682373 11.1929 0.0682373 25C0.0682373 38.8071 11.3704 50 25.3124 50Z" fill="#3D51F4"/>
<path d="M45.9083 18.0034C45.4405 15.9101 42.3809 15.5867 41.3778 15.4801C39.3852 15.2701 36.6925 15.3301 33.5791 15.6567C33.8113 13.6601 33.845 11.9934 33.6733 10.6934C33.4209 8.78008 32.6972 7.62007 31.5191 7.25341C30.3445 6.88674 29.0822 7.41674 27.7729 8.83341C26.8136 9.87341 25.7971 11.3967 24.7503 13.3601C24.7436 13.3734 24.7369 13.3867 24.7302 13.4001C24.3936 14.0367 24.057 14.7134 23.7238 15.4234C23.1112 14.9134 22.512 14.4334 21.9264 13.9934C21.9095 13.9801 21.8927 13.9667 21.8725 13.9534C20.0953 12.6201 18.5336 11.6734 17.2242 11.1401C15.4403 10.4101 14.0771 10.4601 13.1717 11.2834C12.2696 12.1034 12.098 13.4401 12.6702 15.2534C13.0674 16.5134 13.8112 18.0267 14.8917 19.7667C11.896 20.7867 9.40527 21.8701 7.68866 22.9034C6.84046 23.4167 4.25209 24.9734 4.71658 27.0501C5.14742 28.9701 7.71559 29.3567 8.56043 29.4834C10.1626 29.7234 12.3572 29.7567 14.922 29.5801C14.8412 29.3867 14.7638 29.1901 14.6897 28.9934C14.6325 28.8367 14.5786 28.6801 14.5281 28.5201C14.4676 28.3234 14.4103 28.1267 14.3565 27.9267C14.3262 27.8034 14.2959 27.6801 14.2656 27.5567C14.2589 27.5201 14.2488 27.4867 14.242 27.4501C14.1983 27.2501 14.1613 27.0501 14.131 26.8534C12.2461 26.9634 10.617 26.9434 9.37497 26.7967C8.44262 26.6867 7.91754 26.5301 7.63481 26.4101C7.87379 26.1467 8.40223 25.6801 9.51971 25.0501C10.718 24.3734 12.3033 23.6634 14.168 22.9667C14.7032 22.7667 15.2653 22.5667 15.8442 22.3701C16.3424 22.2001 16.8775 22.0267 17.4363 21.8534L17.4666 21.8434C18.7759 21.4334 20.1458 21.0467 21.5561 20.6867C21.2397 21.5667 20.9334 22.4667 20.644 23.3767C20.4084 24.1201 20.1795 24.8767 19.9641 25.6301C19.1226 28.5967 18.51 31.4834 18.1936 33.9734C18.1936 33.9867 18.1902 34.0001 18.1869 34.0167C17.9142 36.1901 17.8705 37.9934 18.059 39.3701C18.3148 41.2501 19.0384 42.3901 20.2064 42.7534C20.6204 42.8834 21.0546 42.9001 21.4922 42.8034C22.2798 42.6301 23.1011 42.0867 23.9358 41.1901C24.8917 40.1601 25.9048 38.6501 26.9449 36.7034L26.9752 36.6467C26.7362 36.6701 26.4972 36.6901 26.2583 36.7001C26.0698 36.7067 25.8847 36.7101 25.6995 36.7101C25.4706 36.7101 25.2418 36.7001 25.0163 36.6867C24.8379 36.6767 24.6595 36.6601 24.4811 36.6401C24.2623 36.6167 24.0469 36.5867 23.8315 36.5501C23.2088 37.6101 22.6029 38.4867 22.0543 39.1167C21.5898 39.6501 21.2667 39.8934 21.0849 40.0034C20.9974 39.8101 20.8762 39.4301 20.8055 38.7367C20.7214 37.9067 20.7281 36.8501 20.8325 35.6301C20.8661 35.2234 20.9132 34.7967 20.9671 34.3567C21.2633 31.9901 21.849 29.2301 22.6601 26.3801C22.8655 25.6534 23.0876 24.9234 23.3131 24.2101C23.7608 22.8001 24.2488 21.4234 24.7604 20.1001C25.7904 21.0834 26.8204 22.1301 27.8268 23.2201C30.3815 25.9801 32.5861 28.7801 34.2051 31.3101C34.4475 31.6934 34.6763 32.0667 34.8884 32.4267C35.5246 33.5134 35.9991 34.4901 36.2852 35.2967C36.5276 35.9801 36.5814 36.3834 36.5848 36.6001C36.3694 36.5767 35.9689 36.4901 35.3125 36.1967C34.5283 35.8467 33.5892 35.2934 32.5558 34.5767C32.3774 34.7001 32.1957 34.8201 32.0106 34.9334C31.8591 35.0267 31.7076 35.1167 31.5528 35.2034C31.3576 35.3134 31.1556 35.4167 30.9537 35.5167C30.7888 35.5967 30.6205 35.6734 30.4488 35.7467C30.23 35.8401 30.0112 35.9267 29.7857 36.0067L29.8194 36.0334C31.6033 37.3734 33.1718 38.3267 34.4845 38.8634C35.6289 39.3334 36.6117 39.4834 37.4061 39.3101C37.8437 39.2134 38.2307 39.0167 38.5505 38.7267C39.4626 37.9001 39.6276 36.5467 39.0385 34.7101C38.6043 33.3601 37.7763 31.7167 36.5713 29.8301C36.5612 29.8134 36.5478 29.7967 36.5377 29.7767C34.8379 27.1201 32.539 24.2067 29.8901 21.3467C29.2404 20.6434 28.5774 19.9567 27.9143 19.2901C29.3482 19.0267 30.7551 18.8034 32.1149 18.6267H32.1317C32.6602 18.5567 33.1449 18.5001 33.6127 18.4467C34.222 18.3801 34.811 18.3234 35.3832 18.2801C37.4195 18.1201 39.2102 18.0901 40.6239 18.2001C41.9467 18.3034 42.64 18.5067 42.9733 18.6501C42.7646 18.8801 42.3472 19.2534 41.5158 19.7567C40.4219 20.4201 38.9073 21.1334 37.1032 21.8367C37.157 22.0301 37.2075 22.2267 37.2546 22.4267C37.2614 22.4534 37.2681 22.4767 37.2715 22.5034C37.3017 22.6367 37.3287 22.7701 37.3522 22.9067C37.3893 23.1101 37.4229 23.3134 37.4498 23.5167C37.4734 23.6834 37.4902 23.8467 37.5037 24.0134C37.5239 24.2234 37.5374 24.4334 37.5441 24.6434C39.9945 23.7234 42.014 22.7634 43.3974 21.8601C44.121 21.3867 46.3291 19.9467 45.8949 18.0101L45.9083 18.0034ZM34.0402 16.7034C33.8416 16.7234 33.6397 16.7434 33.4377 16.7667C32.953 16.8201 32.4481 16.8801 31.9029 16.9501H31.8894C30.1324 17.1834 28.3081 17.4834 26.4468 17.8501C26.302 17.7134 26.1573 17.5767 26.0126 17.4434C27.9917 17.0467 29.9305 16.7234 31.7918 16.4801L31.8423 16.4734C32.1553 16.4334 32.4515 16.3967 32.741 16.3634C32.9631 16.3367 33.1785 16.3134 33.3906 16.2901L33.505 16.2767C33.5286 16.2767 33.5488 16.2734 33.5723 16.2701C33.7339 16.4101 33.8921 16.5567 34.0469 16.7067L34.0402 16.7034ZM29.6578 10.9034C30.129 10.3601 30.4522 10.1134 30.6407 10.0034C30.7282 10.2001 30.8527 10.5934 30.9234 11.3134C31.0075 12.1667 30.9907 13.2534 30.8796 14.5067C31.0782 14.6001 31.2701 14.7001 31.4619 14.8067C31.6168 14.8934 31.7716 14.9801 31.9231 15.0734C32.1183 15.1901 32.3068 15.3134 32.4953 15.4434C32.6333 15.5367 32.7679 15.6367 32.9025 15.7367C32.8453 15.7434 32.7915 15.7501 32.7342 15.7567C32.6434 15.7667 32.5491 15.7767 32.4549 15.7901C32.2529 15.8134 32.0476 15.8401 31.8322 15.8667C31.8086 15.8667 31.7817 15.8734 31.7581 15.8767L31.7076 15.8834H31.6942C31.3677 15.9267 31.0378 15.9734 30.708 16.0201C29.2303 16.2334 27.709 16.4934 26.1607 16.8001C26.5107 16.0401 26.8675 15.3234 27.2209 14.6534C27.4296 14.2634 27.6383 13.8901 27.8436 13.5334C28.4764 12.4467 29.0923 11.5501 29.6544 10.9034H29.6578ZM21.2532 14.2467C21.3373 14.3067 21.4215 14.3701 21.5056 14.4334C22.1384 14.9101 22.7948 15.4301 23.4612 15.9901C23.3939 16.1401 23.3232 16.2934 23.2559 16.4501C22.5592 15.8601 21.8759 15.3134 21.2128 14.8167C21.0647 14.7034 20.9065 14.5901 20.7416 14.4701C20.9099 14.3901 21.0815 14.3167 21.2532 14.2467ZM20.1324 14.7767C20.3612 14.9401 20.6002 15.1134 20.8426 15.3001C21.5393 15.8234 22.263 16.4034 23.0001 17.0301C22.9799 17.0734 22.9631 17.1167 22.9429 17.1634C22.8957 17.2734 22.8486 17.3834 22.8015 17.4967C22.0273 16.8367 21.2734 16.2267 20.5464 15.6834C20.2468 15.4567 19.9506 15.2434 19.6645 15.0434C19.816 14.9534 19.9708 14.8634 20.129 14.7801L20.1324 14.7767ZM16.3996 13.8067C17.1704 14.1501 18.096 14.6934 19.1125 15.3934C19.4592 15.6334 19.816 15.8867 20.1795 16.1634C20.7988 16.6267 21.4383 17.1401 22.0947 17.6901C20.479 18.0801 18.9139 18.5034 17.4127 18.9567C17.167 19.0301 16.9213 19.1067 16.6789 19.1801L16.6318 19.1967C16.6083 19.2034 16.5847 19.2101 16.5611 19.2201C16.3592 19.2834 16.1572 19.3467 15.962 19.4101C15.75 19.4801 15.5413 19.5467 15.3393 19.6134C15.3663 19.5634 15.3932 19.5101 15.4201 19.4601C15.5076 19.3001 15.6019 19.1401 15.6961 18.9834C15.8139 18.7901 15.9351 18.6034 16.063 18.4201C16.164 18.2767 16.2683 18.1334 16.3727 17.9934C16.5039 17.8201 16.6386 17.6534 16.7799 17.4867C16.164 16.4234 15.6995 15.4634 15.4235 14.6734C15.1912 14.0134 15.1407 13.6201 15.1374 13.4067C15.3528 13.4301 15.75 13.5167 16.3996 13.8067ZM14.9657 20.3734C15.0229 20.3534 15.0802 20.3334 15.1374 20.3134C15.1643 20.3034 15.1946 20.2934 15.2215 20.2867C15.2552 20.2734 15.2922 20.2634 15.3259 20.2501C15.7937 20.0934 16.2919 19.9301 16.8102 19.7701L16.8573 19.7567C18.648 19.2001 20.543 18.6801 22.5053 18.2134C22.4313 18.3934 22.3572 18.5767 22.2865 18.7634C20.442 19.2101 18.6615 19.7034 16.9718 20.2301H16.9583C16.376 20.4167 15.8139 20.6001 15.2956 20.7767C15.1037 20.8434 14.9119 20.9067 14.7234 20.9734C14.7974 20.7734 14.8782 20.5734 14.9657 20.3801V20.3734ZM17.2882 21.2634L17.2579 21.2734C16.6958 21.4501 16.1539 21.6267 15.6524 21.7967C15.1946 21.9501 14.7537 22.1067 14.3228 22.2634C14.37 22.0701 14.4204 21.8801 14.4777 21.6934C14.8042 21.5767 15.1441 21.4567 15.4942 21.3401C16.0058 21.1667 16.5578 20.9867 17.13 20.8067H17.1434C18.6985 20.3167 20.3309 19.8634 22.0206 19.4467C21.9499 19.6301 21.8826 19.8134 21.8153 19.9967C20.2502 20.3901 18.7355 20.8167 17.2915 21.2667L17.2882 21.2634ZM18.7591 34.4067C18.7725 34.3001 18.7826 34.1934 18.7961 34.0867C19.1058 31.6134 19.715 28.7434 20.5531 25.7901C20.7651 25.0434 20.9907 24.2934 21.2263 23.5567C21.5561 22.5201 21.9062 21.5001 22.2697 20.5067C22.4582 20.4601 22.65 20.4134 22.8385 20.3667C22.4346 21.4501 22.0475 22.5667 21.6874 23.7001C21.4551 24.4301 21.2296 25.1767 21.0176 25.9201C20.1828 28.8534 19.5803 31.6967 19.274 34.1467C19.2505 34.3301 19.2269 34.5234 19.2067 34.7267C19.0519 34.6234 18.9004 34.5201 18.7523 34.4101L18.7591 34.4067ZM22.7375 24.0234C22.5087 24.7434 22.2865 25.4767 22.0778 26.2101C21.2599 29.0901 20.6675 31.8801 20.368 34.2767C20.3208 34.6401 20.2838 34.9934 20.2535 35.3367C20.0953 35.2534 19.9405 35.1701 19.789 35.0801C19.816 34.8001 19.8496 34.5134 19.8866 34.2167C20.1896 31.7967 20.7853 28.9834 21.6133 26.0801C21.822 25.3434 22.0475 24.6034 22.2764 23.8801C22.677 22.6234 23.1044 21.3901 23.5588 20.1967C23.7473 20.1534 23.9358 20.1101 24.1243 20.0667H24.131C23.6396 21.3434 23.1717 22.6701 22.7409 24.0267L22.7375 24.0234ZM24.5854 16.1601C24.4575 16.0501 24.3296 15.9367 24.2017 15.8301C24.5585 15.0601 24.922 14.3267 25.2855 13.6434C25.336 13.5467 25.3865 13.4534 25.437 13.3601C25.6221 13.3534 25.8072 13.3534 25.9924 13.3601C25.8947 13.5367 25.8005 13.7067 25.7164 13.8734C25.336 14.5867 24.9557 15.3567 24.5821 16.1667L24.5854 16.1601ZM25.0634 16.5767C25.4572 15.7134 25.8577 14.9001 26.2583 14.1467C26.3996 13.8834 26.5376 13.6267 26.6723 13.3867C26.8507 13.4001 27.0257 13.4167 27.2007 13.4367C27.0291 13.7367 26.8574 14.0467 26.6857 14.3701C26.2684 15.1567 25.851 16.0101 25.4404 16.9167C25.3495 16.8334 25.2586 16.7534 25.1711 16.6734C25.1341 16.6401 25.097 16.6101 25.0634 16.5767ZM35.299 31.9067C35.1206 31.6067 34.9288 31.2967 34.7302 30.9834C33.0944 28.4201 30.8662 25.5934 28.2879 22.8067C27.3185 21.7601 26.329 20.7501 25.3394 19.8001H25.3427C25.5346 19.7601 25.7231 19.7201 25.9116 19.6801C26.8305 20.5701 27.746 21.5101 28.6447 22.4834C31.2431 25.2901 33.4882 28.1434 35.1408 30.7267C35.3058 30.9834 35.4606 31.2334 35.6053 31.4734C35.5077 31.6201 35.4034 31.7667 35.299 31.9101V31.9067ZM29.4525 21.7467C32.0947 24.6001 34.3802 27.5067 36.0665 30.1434C36.1237 30.2334 36.1809 30.3201 36.2348 30.4101C36.1472 30.5734 36.0597 30.7367 35.9655 30.8967C35.8611 30.7234 35.7568 30.5601 35.6558 30.4034C33.9863 27.7867 31.7144 24.9067 29.0923 22.0734C28.2812 21.1967 27.4565 20.3467 26.6285 19.5334C26.8204 19.4967 27.0122 19.4567 27.2041 19.4234C27.9614 20.1701 28.712 20.9501 29.4525 21.7501V21.7467ZM33.5589 17.8434C33.0877 17.8934 32.5996 17.9534 32.0644 18.0201H32.0476C30.5464 18.2201 28.9914 18.4701 27.406 18.7667C27.2647 18.6301 27.1233 18.4934 26.9853 18.3567C28.6952 18.0301 30.3714 17.7567 31.987 17.5467H31.9971C32.5356 17.4767 33.0304 17.4167 33.5084 17.3634C33.8719 17.3234 34.2287 17.2867 34.5787 17.2567C34.71 17.4034 34.8413 17.5534 34.9658 17.7067C34.5081 17.7467 34.0402 17.7934 33.5622 17.8434H33.5589Z" fill="white"/>
<path d="M129.513 21.2932V19.2165H132.745V15.8098C132.745 14.0932 133.095 12.7332 133.795 11.7365C134.495 10.7398 135.683 10.4065 137.363 10.4065H139.46V12.4832H137.948C137.306 12.4832 136.801 12.5998 136.437 12.8365C136.074 13.0732 135.808 13.3832 135.639 13.7698C135.471 14.1565 135.367 14.5932 135.323 15.0798C135.283 15.5665 135.259 16.0565 135.259 16.5565V19.2165H139.456V21.2932H135.259V40.7432H132.741V21.2932H129.51H129.513Z" fill="white"/>
<path d="M143.724 19.2998H141.207V40.8265H143.724V19.2998Z" fill="white"/>
<path d="M143.724 13.9998H141.207V14.7398H143.724V13.9998Z" fill="white"/>
<path d="M143.724 15.4797H141.207V16.2197H143.724V15.4797Z" fill="white"/>
<path d="M143.724 16.9597H141.207V17.6997H143.724V16.9597Z" fill="white"/>
<path d="M149.907 40.8264H147.39V19.2997H149.907V22.2931C150.914 21.2397 151.957 20.3831 153.034 19.7164C154.111 19.0531 155.404 18.7197 156.915 18.7197C158.258 18.7197 159.504 18.9497 160.651 19.4064C161.799 19.8631 162.762 20.6597 163.546 21.7964C164.078 22.5731 164.391 23.3697 164.488 24.1864C164.586 25.0031 164.637 25.8564 164.637 26.7431V40.8297H162.119V26.7831C162.119 24.8431 161.685 23.3897 160.82 22.4197C159.951 21.4497 158.511 20.9664 156.498 20.9664C155.714 20.9664 155 21.0831 154.357 21.3197C153.714 21.5564 153.132 21.8664 152.617 22.2531C152.099 22.6431 151.658 23.0831 151.294 23.5831C150.931 24.0831 150.651 24.6097 150.456 25.1631C150.204 25.8564 150.049 26.5197 149.995 27.1564C149.938 27.7931 149.911 28.4864 149.911 29.2331V40.8264H149.907Z" fill="white"/>
<path d="M177.979 28.1499C178.453 28.0933 179.022 28.0133 179.679 27.8999C180.335 27.7899 180.874 27.6366 181.294 27.4433C181.715 27.2499 181.971 26.9233 182.072 26.4666C182.169 26.0099 182.22 25.5866 182.22 25.1999C182.22 23.9266 181.806 22.8799 180.981 22.0633C180.157 21.2466 178.763 20.8366 176.808 20.8366C175.939 20.8366 175.141 20.9133 174.414 21.0666C173.687 21.2199 173.051 21.4833 172.506 21.8566C171.961 22.2299 171.513 22.7299 171.163 23.3533C170.813 23.9766 170.581 24.7599 170.47 25.6999H167.908C167.992 24.4266 168.285 23.3399 168.79 22.4366C169.295 21.5366 169.945 20.8033 170.742 20.2333C171.54 19.6666 172.462 19.2499 173.512 18.9866C174.563 18.7233 175.673 18.5933 176.848 18.5933C177.938 18.5933 178.968 18.7099 179.931 18.9466C180.897 19.1833 181.735 19.5566 182.449 20.0699C183.162 20.5833 183.721 21.2699 184.128 22.1266C184.532 22.9866 184.738 24.0366 184.738 25.2833V37.0033C184.738 37.9733 184.913 38.5899 185.263 38.8533C185.613 39.1166 186.32 39.0533 187.383 38.6666V40.6199C187.188 40.6766 186.902 40.7599 186.522 40.8699C186.145 40.9799 185.771 41.0366 185.411 41.0366C185.017 41.0366 184.64 40.9966 184.276 40.9133C183.856 40.8566 183.522 40.7266 183.27 40.5199C183.018 40.3133 182.816 40.0633 182.661 39.7733C182.506 39.4833 182.402 39.1633 182.344 38.8166C182.287 38.4699 182.26 38.1033 182.26 37.7166C181.197 38.8799 179.978 39.7666 178.608 40.3766C177.238 40.9866 175.754 41.2899 174.159 41.2899C173.206 41.2899 172.291 41.1666 171.409 40.9166C170.527 40.6666 169.753 40.2799 169.079 39.7533C168.41 39.2266 167.878 38.5833 167.484 37.8199C167.09 37.0566 166.895 36.1499 166.895 35.0966C166.895 31.4399 169.426 29.2799 174.492 28.6133L177.976 28.1566L177.979 28.1499ZM182.22 29.3999C181.156 29.8433 180.079 30.1333 178.989 30.2733C177.898 30.4133 176.808 30.5233 175.717 30.6066C173.788 30.7466 172.284 31.1733 171.207 31.8933C170.13 32.6133 169.591 33.7066 169.591 35.1766C169.591 35.8399 169.722 36.4166 169.988 36.8999C170.254 37.3866 170.604 37.7866 171.038 38.1066C171.473 38.4266 171.974 38.6599 172.55 38.8133C173.122 38.9666 173.704 39.0433 174.29 39.0433C175.296 39.0433 176.276 38.9199 177.228 38.6699C178.177 38.4199 179.026 38.0399 179.766 37.5266C180.507 37.0133 181.102 36.3633 181.55 35.5733C181.998 34.7833 182.22 33.8499 182.22 32.7699V29.4033V29.3999Z" fill="white"/>
<path d="M191.446 40.8264H188.928V19.2997H191.446V22.2931C192.452 21.2397 193.496 20.3831 194.573 19.7164C195.65 19.0531 196.942 18.7197 198.454 18.7197C199.797 18.7197 201.042 18.9497 202.19 19.4064C203.337 19.8631 204.3 20.6597 205.084 21.7964C205.616 22.5731 205.929 23.3697 206.027 24.1864C206.124 25.0031 206.175 25.8564 206.175 26.7431V40.8297H203.657V26.7831C203.657 24.8431 203.223 23.3897 202.358 22.4197C201.49 21.4497 200.049 20.9664 198.036 20.9664C197.252 20.9664 196.538 21.0831 195.895 21.3197C195.253 21.5564 194.67 21.8664 194.155 22.2531C193.637 22.6431 193.196 23.0831 192.833 23.5831C192.469 24.0831 192.19 24.6097 191.994 25.1631C191.742 25.8564 191.587 26.5197 191.533 27.1564C191.476 27.7931 191.449 28.4864 191.449 29.2331V40.8264H191.446Z" fill="white"/>
<path d="M225.068 25.9499C224.62 24.3432 223.849 23.0899 222.759 22.1899C221.668 21.2899 220.281 20.8399 218.605 20.8399C217.319 20.8399 216.212 21.1032 215.29 21.6299C214.368 22.1565 213.61 22.8565 213.025 23.7299C212.436 24.6032 212.005 25.5865 211.725 26.6799C211.446 27.7732 211.305 28.8765 211.305 29.9832C211.305 31.0899 211.436 32.2265 211.702 33.3065C211.968 34.3865 212.395 35.3565 212.981 36.2165C213.57 37.0765 214.324 37.7599 215.246 38.2732C216.168 38.7865 217.289 39.0432 218.602 39.0432C220.477 39.0432 221.981 38.5299 223.112 37.5065C224.246 36.4832 224.963 35.0699 225.273 33.2665H227.959C227.733 34.4599 227.377 35.5465 226.889 36.5299C226.397 37.5132 225.768 38.3599 225 39.0665C224.23 39.7732 223.314 40.3199 222.25 40.7065C221.187 41.0932 219.968 41.2899 218.598 41.2899C216.865 41.2899 215.367 40.9999 214.108 40.4165C212.85 39.8365 211.813 39.0399 211.002 38.0265C210.19 37.0165 209.588 35.8165 209.198 34.4332C208.804 33.0499 208.609 31.5665 208.609 29.9865C208.609 28.4899 208.824 27.0565 209.258 25.6865C209.692 24.3165 210.328 23.1032 211.167 22.0499C212.005 20.9965 213.048 20.1599 214.294 19.5365C215.539 18.9132 216.973 18.5999 218.595 18.5999C221.113 18.5999 223.149 19.1965 224.701 20.3865C226.253 21.5765 227.225 23.4332 227.616 25.9565H225.054L225.068 25.9499Z" fill="white"/>
<path d="M232.062 30.5199C232.062 31.6833 232.217 32.7833 232.523 33.8233C232.829 34.8633 233.284 35.7633 233.886 36.5233C234.489 37.2866 235.25 37.8933 236.172 38.3533C237.094 38.8099 238.158 39.0399 239.359 39.0399C241.009 39.0399 242.422 38.6099 243.597 37.7533C244.772 36.8933 245.556 35.6766 245.946 34.0966H248.757C248.447 35.1233 248.043 36.0699 247.538 36.9433C247.034 37.8166 246.404 38.5799 245.65 39.2299C244.896 39.8799 244.001 40.3866 242.964 40.7466C241.927 41.1066 240.726 41.2866 239.356 41.2866C237.622 41.2866 236.125 40.9966 234.866 40.4133C233.607 39.8333 232.57 39.0366 231.759 38.0233C230.948 37.0133 230.345 35.8199 229.955 34.4499C229.561 33.0799 229.366 31.6033 229.366 30.0233C229.366 28.4433 229.598 26.9633 230.059 25.5766C230.52 24.1933 231.177 22.9799 232.032 21.9399C232.883 20.8999 233.927 20.0833 235.159 19.4866C236.391 18.8899 237.787 18.5933 239.356 18.5933C242.348 18.5933 244.698 19.6099 246.404 21.6466C248.111 23.6833 248.949 26.6399 248.922 30.5199H232.052H232.062ZM246.246 28.4433C246.246 27.3899 246.098 26.3999 245.805 25.4733C245.512 24.5466 245.078 23.7433 244.506 23.0633C243.934 22.3833 243.21 21.8433 242.345 21.4433C241.476 21.0433 240.484 20.8399 239.366 20.8399C238.249 20.8399 237.259 21.0466 236.407 21.4633C235.552 21.8799 234.825 22.4333 234.226 23.1266C233.624 23.8199 233.142 24.6233 232.779 25.5366C232.415 26.4499 232.176 27.4199 232.065 28.4466H246.249L246.246 28.4433Z" fill="white"/>
<path d="M57.9648 40.7532V10.3799H76.4974V13.6765H61.6438V23.8732H75.3126V27.1699H61.6438V40.7499H57.9648V40.7532ZM77.9616 40.7532V37.4999H82.2565V13.6365H77.9616V10.3832H93.3403C95.1209 10.3832 96.7062 10.7032 98.093 11.3365C99.4797 11.9732 100.56 12.8632 101.334 14.0065C102.108 15.1499 102.496 16.4866 102.496 18.0199V18.3665C102.496 19.7832 102.216 20.9499 101.664 21.8599C101.109 22.7699 100.452 23.4799 99.6918 23.9865C98.9311 24.4932 98.1872 24.8632 97.4568 25.0932V25.6999C98.1872 25.8732 98.9479 26.2132 99.7355 26.7199C100.523 27.2266 101.19 27.9432 101.728 28.8666C102.267 29.7932 102.539 30.9632 102.539 32.3799V32.8132C102.539 34.4632 102.139 35.8866 101.334 37.0866C100.53 38.2866 99.436 39.1999 98.0492 39.8199C96.6625 40.4432 95.0771 40.7532 93.2966 40.7532H77.9616ZM85.9354 23.7899H93.034C94.7877 23.7899 96.1879 23.3499 97.2414 22.4666C98.2915 21.5832 98.82 20.4199 98.82 18.9732V18.5399C98.82 17.0632 98.3016 15.8865 97.2649 15.0032C96.2283 14.1199 94.8179 13.6799 93.0374 13.6799H85.9387V23.7899H85.9354ZM85.9354 37.4566H92.9028C94.8314 37.4566 96.3057 37.0099 97.3289 36.1099C98.3521 35.2132 98.8637 33.9999 98.8637 32.4666V32.0766C98.8637 30.5432 98.3521 29.3299 97.3289 28.4332C96.3057 27.5366 94.8314 27.0866 92.9028 27.0866H85.9354V37.4566ZM119.312 10.3799H112.825L103.361 40.7532H107.171L108.588 36.1532L110.483 29.7766H110.456L111.126 27.6066L115.757 12.5932H116.37L121.257 28.5632L121.284 28.6532L121.627 29.7766H121.621L123.522 36.0999L123.539 36.1532L124.956 40.7532H128.766L119.301 10.3799H119.312Z" fill="white"/>
</g>
<defs>
<clipPath id="clip0_1_38">
<rect width="248.864" height="50" fill="white" transform="translate(0.0682373)"/>
</clipPath>
</defs>
</svg>
