<?xml version="1.0" encoding="UTF-8"?>
<svg id="Layer_1" xmlns="http://www.w3.org/2000/svg" viewBox="0 0 720 720">
  <g>
    <path d="M122.57,349.37h.03c3.73-1.18,7.66-2.28,11.74-3.28.16-.41.32-.82.48-1.22-4.33,1.04-8.52,2.2-12.47,3.44l-.11.03c-1.14.36-2.25.72-3.28,1.07-.08.03-.15.05-.23.08-.06.02-.12.04-.18.06-.13.04-.25.09-.38.13-.19.44-.37.88-.53,1.33.42-.15.84-.29,1.26-.44,1.15-.39,2.38-.8,3.67-1.21Z"/>
    <path d="M122.18,343.24c-.31.37-.61.74-.9,1.13-.24.31-.47.63-.69.95-.28.41-.55.83-.81,1.26-.21.35-.41.7-.61,1.06-.06.11-.12.23-.18.34.45-.15.91-.3,1.38-.45.43-.14.87-.28,1.32-.42.05-.02.11-.03.16-.05l.11-.03c.54-.17,1.08-.34,1.62-.5,3.31-1.01,6.77-1.95,10.34-2.82-1.45-1.23-2.86-2.37-4.23-3.4-.81-.61-1.59-1.18-2.36-1.71-2.25-1.57-4.29-2.77-5.99-3.54-1.44-.65-2.31-.84-2.79-.89,0,.47.12,1.35.64,2.82.61,1.76,1.63,3.9,2.99,6.27Z"/>
    <path d="M133.74,347.62c-3.73.93-7.34,1.95-10.77,3.03h-.03c-1.27.41-2.48.81-3.61,1.2-.77.26-1.52.53-2.24.79-.13.42-.24.84-.34,1.27.95-.35,1.93-.7,2.94-1.04,1.11-.38,2.3-.77,3.54-1.17l.07-.02c3.19-1,6.54-1.95,9.99-2.83.15-.41.3-.82.46-1.22Z"/>
    <path d="M152.93,339.97c.73-.11,1.46-.21,2.18-.3h.03s.11-.02.11-.02c.05,0,.11-.01.16-.02.47-.06.93-.12,1.37-.17.21-.03.41-.05.62-.07.12-.01.25-.03.37-.04-.29-.22-.59-.44-.9-.65-.41-.29-.83-.56-1.26-.82-.34-.2-.68-.4-1.02-.59-.42-.23-.85-.46-1.29-.67.25-2.79.28-5.22.09-7.12-.16-1.61-.43-2.48-.63-2.92-.41.25-1.13.8-2.17,2.01-1.24,1.44-2.6,3.44-4,5.86-.46.79-.91,1.62-1.37,2.49-.78,1.49-1.57,3.09-2.34,4.78,3.42-.68,6.77-1.26,10.04-1.74Z"/>
    <path d="M155.43,340.98h-.11c-4.11.56-8.39,1.28-12.76,2.17.32.3.64.6.96.9,4.11-.82,8.14-1.49,12.02-2h.03c1.21-.16,2.32-.3,3.39-.41.45-.05.89-.1,1.33-.14-.34-.33-.69-.66-1.05-.97-.05,0-.1.01-.15.02l-.25.03c-.47.05-.94.11-1.43.16-.63.08-1.29.16-1.98.25Z"/>
    <path d="M135.47,343.27c.1-.25.21-.5.31-.75.04-.1.08-.2.13-.3-1.63-1.4-3.23-2.69-4.77-3.86-.54-.41-1.06-.8-1.57-1.16-.35.19-.69.39-1.03.59.64.45,1.29.93,1.95,1.43,1.6,1.22,3.27,2.57,4.98,4.05Z"/>
    <path d="M133.02,357.1c.8-2.53,1.65-5.02,2.54-7.43-.42.1-.84.21-1.26.31-.81,2.22-1.58,4.49-2.31,6.8-.52,1.64-1.02,3.32-1.49,4.98-1.85,6.59-3.19,12.99-3.88,18.5-.03.24-.06.48-.08.72.33.24.66.48,1,.71.05-.45.1-.88.15-1.29.68-5.46,2.01-11.8,3.85-18.34.46-1.65.96-3.32,1.48-4.95Z"/>
    <path d="M136.46,340.94c.15-.34.3-.69.46-1.02-1.47-1.25-2.92-2.41-4.32-3.47-.19-.14-.37-.28-.56-.42-.38.16-.76.33-1.13.5.36.27.71.53,1.04.77,1.46,1.11,2.97,2.32,4.51,3.64Z"/>
    <path d="M159.1,342.98c-1.06.11-2.15.25-3.34.4h-.02c-3.57.48-7.27,1.08-11.04,1.81.31.3.62.61.93.92,3.5-.66,6.93-1.22,10.25-1.66h.04c1.18-.16,2.26-.29,3.3-.4,1.06-.12,2.09-.22,3.1-.3-.28-.34-.56-.68-.85-1-.77.07-1.56.15-2.36.24Z"/>
    <path d="M137.14,349.29c-1,2.66-1.95,5.41-2.83,8.21-.51,1.62-1,3.27-1.46,4.91-1.82,6.48-3.14,12.75-3.81,18.14-.08.66-.15,1.3-.21,1.92.34.2.68.39,1.03.57.07-.76.15-1.55.26-2.36.66-5.34,1.97-11.56,3.78-17.98.46-1.63.95-3.27,1.45-4.88.95-3.02,1.98-5.98,3.07-8.83h-.01c-.42.1-.83.19-1.25.29Z"/>
    <path d="M141.01,304.27c-30.78,0-55.73,24.95-55.73,55.73s24.95,55.73,55.73,55.73,55.73-24.95,55.73-55.73-24.95-55.73-55.73-55.73ZM180.97,352.99c-3.05,2.01-7.51,4.15-12.92,6.2-.02-.47-.05-.94-.09-1.41-.03-.37-.07-.74-.12-1.1-.06-.45-.13-.9-.22-1.36-.05-.3-.12-.6-.18-.9-.01-.06-.03-.12-.04-.17-.1-.44-.21-.88-.33-1.31,3.98-1.57,7.33-3.16,9.74-4.64,1.83-1.13,2.76-1.96,3.22-2.47-.74-.32-2.27-.77-5.19-1-3.12-.25-7.07-.18-11.57.18-1.26.1-2.57.22-3.91.37-1.03.11-2.1.24-3.27.39h-.04c-3.01.4-6.11.9-9.28,1.48,1.47,1.48,2.92,3.01,4.36,4.58,5.85,6.38,10.92,12.88,14.67,18.79.03.04.05.08.08.12,2.66,4.21,4.49,7.87,5.45,10.88,1.3,4.1.94,7.11-1.08,8.96-.71.65-1.56,1.09-2.53,1.3-1.75.39-3.92.05-6.45-.99-2.9-1.2-6.36-3.32-10.3-6.31l-.08-.06c.5-.18.99-.37,1.47-.58h0c.38-.16.75-.33,1.11-.51.45-.22.89-.45,1.32-.7.34-.19.68-.39,1.01-.6.41-.25.81-.52,1.2-.8,2.28,1.6,4.36,2.83,6.09,3.61,1.45.65,2.33.85,2.81.9,0-.48-.13-1.39-.66-2.91-.63-1.8-1.69-3.98-3.09-6.4-.46-.8-.97-1.64-1.51-2.49-3.57-5.64-8.44-11.88-14.08-18.04-2.22-2.43-4.5-4.76-6.77-6.95-1.14,2.95-2.21,6.02-3.2,9.16-.5,1.59-.99,3.22-1.44,4.84-1.79,6.36-3.08,12.51-3.74,17.79-.12.98-.22,1.93-.3,2.84-.23,2.72-.25,5.08-.06,6.93.16,1.54.43,2.39.62,2.82.41-.25,1.12-.79,2.14-1.98,1.22-1.41,2.55-3.36,3.93-5.73.47.08.95.15,1.44.2.39.04.78.08,1.18.1.5.03,1,.05,1.51.05.41,0,.82,0,1.24-.02.53-.02,1.05-.06,1.58-.12l-.07.13c-2.3,4.34-4.53,7.71-6.64,10-1.84,2-3.66,3.21-5.4,3.6h0c-.97.22-1.92.18-2.84-.11-2.58-.81-4.18-3.35-4.74-7.54-.42-3.07-.32-7.09.28-11.93,0-.03,0-.06.01-.09.7-5.56,2.05-11.99,3.91-18.6.47-1.68.98-3.37,1.5-5.02.64-2.03,1.31-4.03,2.02-6-3.12.81-6.14,1.67-9.03,2.58l-.07.02c-1.23.39-2.42.78-3.52,1.15-1.28.44-2.52.88-3.7,1.33-4.11,1.55-7.62,3.13-10.26,4.64-2.47,1.41-3.63,2.44-4.16,3.03.62.27,1.78.62,3.84.86,2.74.33,6.34.37,10.5.12.07.44.15.89.25,1.33.02.08.03.16.05.24.06.28.13.55.2.83.11.45.24.89.38,1.32.11.36.23.71.35,1.05.16.44.33.88.51,1.31-5.66.4-10.5.32-14.04-.21-1.86-.28-7.53-1.15-8.48-5.43-1.03-4.63,4.68-8.11,6.56-9.25,3.79-2.3,9.29-4.72,15.9-6.99-2.38-3.87-4.03-7.25-4.9-10.06-1.26-4.04-.89-7.02,1.11-8.85,2-1.84,5.01-1.94,8.95-.32,2.89,1.19,6.34,3.3,10.26,6.27.04.03.08.06.12.09,1.29.98,2.62,2.05,3.97,3.19.73-1.58,1.48-3.09,2.22-4.51.01-.03.03-.06.04-.09,2.31-4.38,4.55-7.78,6.67-10.09,2.89-3.16,5.68-4.34,8.27-3.52,2.6.82,4.21,3.4,4.76,7.67.38,2.9.31,6.62-.21,11.07,6.88-.73,12.82-.87,17.22-.4,2.22.24,8.97.96,10,5.62.96,4.32-3.91,7.53-5.51,8.58Z"/>
    <path d="M143.91,347.81c1.83,1.81,3.65,3.71,5.44,5.66,5.79,6.32,10.8,12.74,14.49,18.57.22.35.45.72.68,1.1.21-.36.41-.72.6-1.08-.12-.2-.25-.39-.37-.59-3.72-5.88-8.77-12.36-14.6-18.72-1.63-1.78-3.29-3.52-4.96-5.19-.42.08-.85.16-1.27.25Z"/>
    <path d="M142.52,334.04c-.41,0-.82,0-1.23,0-.11.21-.22.42-.34.63-.8,1.52-1.6,3.16-2.39,4.88.28.24.56.49.84.74.82-1.81,1.66-3.52,2.5-5.11.19-.37.4-.75.61-1.14Z"/>
    <path d="M148.36,354.38c-1.98-2.17-4.01-4.26-6.04-6.25-.42.09-.84.17-1.26.27h0c2.19,2.12,4.37,4.37,6.51,6.71,5.69,6.21,10.61,12.52,14.23,18.23.44.7.86,1.39,1.26,2.06.23-.32.46-.64.68-.97-.32-.54-.66-1.09-1.02-1.66-3.65-5.76-8.61-12.12-14.34-18.38Z"/>
    <path d="M144.05,336.3c.38-.72.76-1.42,1.14-2.08-.39-.05-.78-.09-1.17-.11h0c-.3.54-.61,1.11-.92,1.7-.89,1.68-1.77,3.5-2.64,5.42.08.07.16.14.24.22.2.18.4.36.6.54.91-2.02,1.83-3.92,2.75-5.68Z"/>
  </g>
  <g>
    <g>
      <path d="M371.07,351.74v-4.63h7.13v-7.6c0-3.83.77-6.86,2.32-9.08,1.54-2.22,4.17-2.96,7.88-2.96h4.63v4.63h-3.34c-1.42,0-2.53.26-3.34.79-.8.53-1.39,1.22-1.76,2.08-.37.87-.6,1.84-.7,2.92-.09,1.08-.14,2.18-.14,3.29v5.93h9.26v4.63h-9.26v43.36h-5.56v-43.36h-7.13Z"/>
      <rect x="396.88" y="347.29" width="5.56" height="47.99"/>
      <g>
        <rect x="396.88" y="335.48" width="5.56" height="1.65"/>
        <rect x="396.88" y="338.78" width="5.56" height="1.65"/>
        <rect x="396.88" y="342.08" width="5.56" height="1.65"/>
      </g>
      <path d="M416.1,395.28h-5.56v-47.99h5.56v6.67c2.22-2.35,4.52-4.26,6.9-5.74,2.38-1.48,5.23-2.22,8.57-2.22,2.96,0,5.71.51,8.25,1.53,2.53,1.02,4.66,2.8,6.39,5.33,1.17,1.73,1.87,3.51,2.08,5.33.22,1.82.32,3.72.32,5.7v31.41h-5.56v-31.31c0-4.32-.96-7.57-2.87-9.73-1.91-2.16-5.1-3.24-9.54-3.24-1.73,0-3.3.26-4.73.79-1.42.53-2.7,1.22-3.84,2.08-1.14.87-2.12,1.85-2.92,2.96-.8,1.11-1.42,2.29-1.85,3.52-.56,1.54-.9,3.03-1.02,4.45-.12,1.42-.18,2.96-.18,4.63v25.85Z"/>
      <path d="M478.08,367.03c1.05-.12,2.3-.31,3.75-.56,1.45-.25,2.64-.59,3.57-1.02.93-.43,1.5-1.16,1.71-2.18.22-1.02.32-1.96.32-2.83,0-2.84-.91-5.17-2.73-6.99-1.82-1.82-4.9-2.73-9.22-2.73-1.92,0-3.68.17-5.28.51-1.61.34-3.01.93-4.22,1.76-1.2.83-2.19,1.95-2.96,3.34-.77,1.39-1.28,3.14-1.53,5.23h-5.65c.19-2.84.83-5.26,1.95-7.27,1.11-2.01,2.55-3.64,4.31-4.91,1.76-1.27,3.8-2.19,6.11-2.78,2.32-.59,4.77-.88,7.37-.88,2.41,0,4.68.26,6.81.79,2.13.53,3.98,1.36,5.56,2.5,1.57,1.14,2.81,2.67,3.71,4.59.89,1.92,1.34,4.26,1.34,7.04v26.13c0,2.16.39,3.54,1.16,4.12.77.59,2.33.45,4.68-.42v4.35c-.43.12-1.07.31-1.9.56-.83.25-1.65.37-2.46.37-.87,0-1.7-.09-2.5-.28-.93-.12-1.67-.42-2.22-.88-.56-.46-1-1.02-1.34-1.67-.34-.65-.57-1.36-.7-2.13-.12-.77-.18-1.59-.18-2.46-2.35,2.59-5.03,4.57-8.06,5.93-3.03,1.36-6.3,2.04-9.82,2.04-2.1,0-4.12-.28-6.07-.83-1.95-.56-3.66-1.42-5.14-2.59-1.48-1.17-2.66-2.61-3.52-4.31-.87-1.7-1.3-3.72-1.3-6.07,0-8.15,5.59-12.97,16.77-14.45l7.69-1.02ZM487.43,369.81c-2.35.99-4.72,1.64-7.13,1.95-2.41.31-4.82.56-7.23.74-4.26.31-7.58,1.27-9.96,2.87-2.38,1.61-3.57,4.05-3.57,7.32,0,1.48.29,2.76.88,3.84.59,1.08,1.36,1.98,2.32,2.69.96.71,2.07,1.24,3.34,1.57,1.27.34,2.55.51,3.84.51,2.22,0,4.38-.28,6.49-.83,2.1-.56,3.97-1.4,5.61-2.55,1.64-1.14,2.95-2.59,3.94-4.35.99-1.76,1.48-3.84,1.48-6.25v-7.5Z"/>
      <path d="M507.81,395.28h-5.56v-47.99h5.56v6.67c2.22-2.35,4.52-4.26,6.9-5.74,2.38-1.48,5.23-2.22,8.57-2.22,2.96,0,5.71.51,8.25,1.53,2.53,1.02,4.66,2.8,6.39,5.33,1.17,1.73,1.87,3.51,2.08,5.33.22,1.82.32,3.72.32,5.7v31.41h-5.56v-31.31c0-4.32-.96-7.57-2.87-9.73-1.91-2.16-5.1-3.24-9.54-3.24-1.73,0-3.3.26-4.73.79-1.42.53-2.7,1.22-3.84,2.08-1.14.87-2.12,1.85-2.92,2.96-.8,1.11-1.42,2.29-1.85,3.52-.56,1.54-.9,3.03-1.02,4.45-.12,1.42-.18,2.96-.18,4.63v25.85Z"/>
      <path d="M582.03,362.12c-.99-3.58-2.69-6.38-5.1-8.38-2.41-2.01-5.47-3.01-9.17-3.01-2.84,0-5.28.59-7.32,1.76-2.04,1.17-3.71,2.73-5,4.68-1.3,1.95-2.26,4.14-2.87,6.58-.62,2.44-.93,4.9-.93,7.37s.29,5,.88,7.41c.59,2.41,1.53,4.57,2.83,6.49,1.3,1.92,2.96,3.44,5,4.59,2.04,1.14,4.51,1.71,7.41,1.71,4.14,0,7.46-1.14,9.96-3.43,2.5-2.28,4.09-5.43,4.77-9.45h5.93c-.49,2.66-1.28,5.08-2.36,7.27-1.08,2.19-2.47,4.08-4.17,5.65-1.7,1.57-3.72,2.8-6.07,3.66-2.35.86-5.03,1.3-8.06,1.3-3.83,0-7.13-.65-9.91-1.95-2.78-1.3-5.07-3.07-6.86-5.33-1.79-2.25-3.12-4.92-3.98-8.01-.87-3.09-1.3-6.39-1.3-9.91,0-3.34.48-6.53,1.44-9.59.96-3.06,2.36-5.76,4.22-8.11,1.85-2.35,4.15-4.22,6.9-5.6,2.75-1.39,5.91-2.09,9.5-2.09,5.56,0,10.05,1.33,13.48,3.98,3.43,2.66,5.57,6.8,6.44,12.41h-5.65Z"/>
      <path d="M597.48,372.31c0,2.59.34,5.05,1.02,7.37.68,2.32,1.68,4.32,3.01,6.02,1.33,1.7,3.01,3.06,5.05,4.08,2.04,1.02,4.38,1.53,7.04,1.53,3.64,0,6.76-.96,9.36-2.87,2.59-1.91,4.32-4.63,5.19-8.15h6.21c-.68,2.29-1.57,4.4-2.69,6.35-1.11,1.95-2.5,3.65-4.17,5.1-1.67,1.45-3.64,2.58-5.93,3.38-2.29.8-4.94,1.2-7.97,1.2-3.83,0-7.13-.65-9.91-1.95-2.78-1.3-5.07-3.07-6.86-5.33-1.79-2.25-3.12-4.91-3.98-7.97-.87-3.06-1.3-6.35-1.3-9.87s.51-6.82,1.53-9.91c1.02-3.09,2.47-5.79,4.35-8.11,1.88-2.32,4.18-4.14,6.9-5.47,2.72-1.33,5.8-1.99,9.26-1.99,6.61,0,11.8,2.27,15.56,6.81,3.77,4.54,5.62,11.13,5.56,19.78h-37.24ZM628.79,367.67c0-2.35-.32-4.55-.97-6.62-.65-2.07-1.61-3.86-2.87-5.37-1.27-1.51-2.86-2.72-4.77-3.61-1.92-.89-4.11-1.34-6.58-1.34s-4.65.46-6.53,1.39c-1.88.93-3.49,2.16-4.82,3.71-1.33,1.54-2.39,3.34-3.2,5.37-.8,2.04-1.33,4.2-1.58,6.49h31.31Z"/>
    </g>
    <path d="M213.1,395.12v-67.71h40.92v7.35h-32.79v22.73h30.18v7.35h-30.18v30.28h-8.13ZM257.25,395.12v-7.25h9.48v-53.2h-9.48v-7.25h33.95c3.93,0,7.43.71,10.5,2.13,3.06,1.42,5.45,3.4,7.16,5.95,1.71,2.55,2.56,5.53,2.56,8.95v.77c0,3.16-.61,5.76-1.84,7.79-1.23,2.03-2.68,3.61-4.35,4.74-1.68,1.13-3.32,1.95-4.93,2.47v1.35c1.61.39,3.29,1.15,5.03,2.27,1.74,1.13,3.21,2.72,4.4,4.79,1.19,2.06,1.79,4.68,1.79,7.84v.97c0,3.68-.89,6.85-2.66,9.53-1.77,2.68-4.19,4.71-7.25,6.09-3.06,1.39-6.56,2.08-10.5,2.08h-33.86ZM274.85,357.3h15.67c3.87,0,6.96-.98,9.29-2.95,2.32-1.97,3.48-4.56,3.48-7.79v-.97c0-3.29-1.15-5.92-3.43-7.88-2.29-1.97-5.4-2.95-9.33-2.95h-15.67v22.54ZM274.85,387.77h15.38c4.26,0,7.51-1,9.77-3,2.26-2,3.39-4.71,3.39-8.12v-.87c0-3.42-1.13-6.13-3.39-8.13-2.26-2-5.51-3-9.77-3h-15.38v23.12ZM348.54,327.41h-14.32l-20.89,67.71h8.42l3.13-10.26,4.18-14.21h-.06l1.48-4.84,10.23-33.47h1.35l10.79,35.6.06.2.76,2.5h-.01l4.2,14.1.04.12,3.13,10.26h8.42l-20.89-67.71Z"/>
  </g>
</svg>